Coordinates
version=1
nRows=19
nColumns=33
inDegrees=yes

Units are S.I. units (second, meters, Newtons, ...)
Angles are in degrees.

endheader
time	ground_thorax_rot_x	ground_thorax_rot_y	ground_thorax_rot_z	ground_thorax_tx	ground_thorax_ty	ground_thorax_tz	clav_prot_r	clav_elev_r	scapula_abduction_r	scapula_elevation_r	scapula_upward_rot_r	scapula_winging_r	shoulder_elv_r	plane_of_elev_r	axial_rot_r	elbow_flexion_r	pro_sup_r	wrist_flex_r	wrist_dev_r	clav_prot_l	clav_elev_l	scapula_abduction_l	scapula_elevation_l	scapula_upward_rot_l	scapula_winging_l	shoulder_elv_l	plane_of_elev_l	axial_rot_l	elbow_flexion_l	pro_sup_l	wrist_flex_l	wrist_dev_l
      2.63000000	     19.60820599	     48.76379132	     33.03368124	     -0.12620825	      1.02380116	      0.00767016	    -17.01967057	     23.40059059	    -26.16685233	     19.17864972	     26.06813540	     -5.17437334	     78.67901027	    -64.26054383	     52.70045779	     73.17356351	     -3.59761244	     -5.06715140	     24.67156707	     31.03228696	    -41.49545549	    -45.00000000	     19.89294758	    -26.26330162	     -2.11340588	     27.77117299	    -27.07769088	     -7.25228540	     49.74890324	     -5.56610014	     15.76375169	      0.18037336
      2.64000000	     19.33430008	     48.87027030	     33.21247915	     -0.12660758	      1.02420043	      0.00730150	    -16.95825145	     23.01443463	    -25.66438044	     18.84966404	     25.97123826	     -5.27102876	     78.16942366	    -64.01297116	     52.50535141	     72.01541361	     -3.42410142	     -5.34016662	     24.63274106	     31.09536654	    -41.76212773	    -45.00000000	     20.16410780	    -26.26912971	     -2.41724897	     27.82214874	    -26.65636177	     -7.04468890	     48.73239732	     -5.53299504	     15.71893608	      0.42642741
      2.65000000	     19.24545390	     48.64713656	     33.41554020	     -0.12715545	      1.02331327	      0.00679518	    -15.69512242	     23.73679764	    -24.04411668	     19.64645992	     25.96265824	     -4.84285879	     73.86651664	    -65.28844047	     48.24083065	     70.09747215	     -3.44684030	     -5.35072091	     24.84739673	     31.13638647	    -41.65394384	    -45.00000000	     19.65330934	    -27.15132656	     -2.09628135	     28.41962475	    -24.98573631	     -7.07771851	     47.50927346	     -5.58989201	     17.06648588	      0.45483830
      2.66000000	     18.90269961	     48.73539830	     33.63542323	     -0.12750164	      1.02383235	      0.00651903	    -15.75516590	     23.39807605	    -23.61959884	     19.26941986	     26.08351497	     -5.04793144	     73.21342793	    -64.92634622	     48.26269936	     68.87165616	     -3.14242943	     -5.65437710	     24.66367324	     31.19542391	    -41.90836191	    -45.00000000	     19.93074110	    -27.11545695	     -2.39294798	     28.45731456	    -24.66086799	     -6.93002277	     46.49108534	     -5.39616854	     16.65491510	      0.74260970
      2.67000000	     18.77936464	     48.39600048	     33.46149816	     -0.12774204	      1.02404377	      0.00606529	    -15.36919280	     23.25812092	    -22.48001076	     19.09344636	     26.26554779	     -5.16076111	     70.83670013	    -64.95164414	     46.54891513	     67.23052291	     -2.74763127	     -5.72155872	     24.32119933	     31.21735904	    -41.93791748	    -45.00000000	     19.86124138	    -27.34015976	     -2.37907973	     28.89086858	    -23.91696548	     -6.78441697	     45.65435442	     -5.33823109	     16.63613199	      0.70312262
      2.68000000	     18.52915584	     48.76319629	     33.80982143	     -0.12816843	      1.02414970	      0.00582741	    -15.23573610	     23.10611506	    -22.15111217	     19.00223877	     26.14445005	     -5.16157959	     70.44027519	    -64.93996251	     46.24703506	     66.17596211	     -2.59306393	     -5.98709110	     24.29788369	     31.30487203	    -42.29823717	    -45.00000000	     20.23103796	    -27.34017038	     -2.79171567	     28.84993552	    -23.48783304	     -6.88406183	     44.38249958	     -5.20605567	     16.63284557	      1.05179093
      2.69000000	     18.42307665	     48.49112349	     34.38010203	     -0.12880093	      1.02254683	      0.00539848	    -13.49958896	     24.46067146	    -20.07415322	     20.36589002	     26.29510508	     -4.60646122	     64.26865321	    -66.52812235	     40.33227007	     63.89227127	     -2.27873033	     -5.57700054	     24.40590418	     31.34958663	    -42.08608924	    -45.00000000	     19.27639741	    -28.95700280	     -2.19039184	     29.71864513	    -21.18909652	     -7.24617957	     42.97317846	     -5.29435477	     18.13977226	      0.83987096
      2.70000000	     18.57840443	     48.74064107	     33.91187006	     -0.12812102	      1.02253487	      0.00549753	    -13.64091661	     25.25074253	    -19.71071340	     20.53966254	     27.87611012	     -5.03928105	     60.60569575	    -66.50589219	     38.23861686	     62.33088373	     -1.18302966	     -5.79584486	     23.74773036	     31.35115156	    -42.30412003	    -45.00000000	     19.93415884	    -28.00451608	     -2.64643242	     29.33335493	    -21.35741806	     -7.68194717	     42.30498030	     -4.67008452	     16.63213201	      1.49335991
      2.71000000	     18.25615395	     48.26418965	     34.75686407	     -0.12870227	      1.02119588	      0.00524565	    -11.96935741	     26.52735115	    -17.52497466	     21.78983674	     28.12009825	     -4.58381126	     53.65067371	    -67.55557144	     31.93031175	     59.80380227	     -0.45612534	     -5.25582137	     24.04440363	     31.38358587	    -42.11494898	    -45.00000000	     19.02572127	    -29.57120731	     -2.09102527	     29.97065529	    -19.50851509	     -7.55357064	     41.22200879	     -4.39846568	     17.44804119	      1.55760190
      2.72000000	     18.15415090	     48.40294676	     34.65857149	     -0.12894781	      1.02152473	      0.00503116	    -12.02655337	     26.14952248	    -17.24106642	     21.44565650	     28.02649123	     -4.72415019	     53.36910954	    -67.12151340	     31.70957530	     58.73980815	     -0.25162866	     -5.54154567	     23.89954410	     31.45052987	    -42.41874068	    -45.00000000	     19.45949570	    -29.30281772	     -2.49006034	     29.98820066	    -19.20302075	     -7.38811447	     39.97487095	     -4.52369061	     17.57175072	      1.68159723
      2.73000000	     18.20039052	     48.33223258	     34.57855879	     -0.12918923	      1.02162036	      0.00470179	    -11.78551810	     26.02234335	    -16.55998696	     21.33420598	     28.00959349	     -4.79526390	     52.40078000	    -66.78182281	     30.98879718	     57.45040850	      0.02618356	     -5.64157967	     23.78576213	     31.51769835	    -42.67651092	    -45.00000000	     19.70544890	    -29.34689759	     -2.77921564	     30.05937785	    -18.66705431	     -6.92084480	     38.74998454	     -4.97247734	     18.14235694	      1.38731334
      2.74000000	     17.97414858	     48.51022532	     34.78291180	     -0.12946100	      1.02177697	      0.00448842	    -11.73402981	     25.75583165	    -16.22076507	     21.11424966	     27.89659398	     -4.87284802	     52.03931860	    -66.58717840	     30.71780397	     56.38521875	      0.22846849	     -5.87410907	     23.71385791	     31.59834315	    -42.98460252	    -45.00000000	     20.00432336	    -29.39140875	     -3.12116210	     30.13564652	    -18.27287119	     -6.86304024	     37.57885519	     -4.83516929	     18.04916192	      1.67134293
      2.75000000	     17.96761552	     48.59874545	     34.87881209	     -0.12970383	      1.02161992	      0.00412288	    -11.55139096	     25.59975135	    -15.80096565	     21.02877114	     27.72891765	     -4.87915761	     51.88780822	    -66.24267881	     30.70978039	     55.34046062	      0.42829922	     -6.12268644	     23.63716005	     31.67325681	    -43.27848472	    -45.00000000	     20.32106207	    -29.36929470	     -3.46468369	     30.15830205	    -17.97873096	     -6.98622461	     36.67721311	     -4.73212539	     18.07926224	      1.88711847
      2.76000000	     17.65859473	     48.26467609	     35.36687507	     -0.13004851	      1.02040283	      0.00403726	    -10.29007931	     26.62962558	    -13.94524426	     21.95354854	     28.08304597	     -4.66787533	     45.33856842	    -66.86966808	     24.47919455	     53.03542762	      1.48332492	     -5.36050902	     23.75628017	     31.69546896	    -43.04807000	    -45.00000000	     18.91737472	    -31.89862683	     -2.64985058	     31.95442530	    -14.97035333	     -7.50887237	     35.19015444	     -3.34250370	     19.21307333	      1.49074573
      2.77000000	     17.63886314	     48.39582532	     35.43741649	     -0.13026494	      1.02024610	      0.00380272	    -10.16937078	     26.51157971	    -13.63467702	     21.87767137	     27.97722485	     -4.69240867	     45.19225405	    -66.54975708	     24.52241040	     52.13532513	      1.68541623	     -5.61443611	     23.63376376	     31.77955706	    -43.36301151	    -45.00000000	     19.31452938	    -31.74297790	     -3.04044417	     31.88125319	    -14.73631931	     -7.50769102	     34.13943065	     -3.31168239	     19.18960426	      1.76166163
      2.78000000	     17.58022921	     48.44113915	     35.55074798	     -0.13035835	      1.02042776	      0.00364237	    -10.13946565	     26.30001339	    -13.35061186	     21.68715536	     27.92195295	     -4.77965283	     45.05162215	    -66.22908662	     24.43841246	     51.19838903	      1.89290936	     -5.84416193	     23.48649432	     31.85897152	    -43.65992793	    -45.00000000	     19.64654410	    -31.69244246	     -3.39155484	     31.81556999	    -14.44694594	     -7.34165251	     32.97557406	     -3.32414647	     19.16590516	      1.99289176
      2.79000000	     17.39641775	     48.46945900	     35.56536682	     -0.13046304	      1.02071043	      0.00338195	    -10.14485974	     26.00614870	    -13.03475004	     21.41110717	     27.87600408	     -4.90424314	     44.48947079	    -65.90593498	     23.97751455	     50.07921777	      2.22432479	     -5.88533956	     23.17132867	     31.91090355	    -43.83729817	    -45.00000000	     19.76102866	    -31.84513553	     -3.56354352	     31.78734017	    -13.68577725	     -6.23979545	     31.58938010	     -3.74294532	     19.27531272	      1.85406566
      2.80000000	     17.38949034	     48.47781863	     35.65690339	     -0.13066583	      1.02035318	      0.00326200	     -9.93050909	     25.94661499	    -12.65489926	     21.41568569	     27.71623807	     -4.88449628	     44.26079909	    -65.64352219	     24.02473465	     49.41641687	      2.38719867	     -6.02800754	     23.10723829	     31.98866055	    -44.12729065	    -45.00000000	     20.09490521	    -31.78159619	     -3.91520808	     31.84672744	    -13.46457350	     -6.34257556	     30.59282682	     -3.63053994	     19.30752123	      2.06347451
      2.81000000	     17.35961206	     48.58219444	     35.76441004	     -0.13075687	      1.02045123	      0.00296854	     -9.84738511	     25.76213874	    -12.35292673	     21.27378506	     27.60935692	     -4.93628720	     44.15249155	    -65.43785995	     23.83829208	     48.42957417	      2.59722229	     -6.21805395	     22.96031880	     32.06414597	    -44.39893062	    -45.00000000	     20.35428054	    -31.84057384	     -4.21987012	     31.81577681	    -13.07801813	     -6.24735221	     29.56743896	     -3.57101777	     19.32153053	      2.22153329
